<?xml version="1.0" encoding="utf-8"?>
<!-- Generator: Adobe Illustrator 26.0.1, SVG Export Plug-In . SVG Version: 6.00 Build 0)  -->
<svg version="1.1" id="Calque_1" xmlns="http://www.w3.org/2000/svg" xmlns:xlink="http://www.w3.org/1999/xlink" x="0px" y="0px"
	 viewBox="0 0 156.2 36.5" style="enable-background:new 0 0 156.2 36.5;" xml:space="preserve">
<style type="text/css">
	.st0{fill:url(#Tracé_78872-2_00000170262715055313497040000000066551823856550290_);}
	.st1{fill:url(#Tracé_78873-2_00000153692134720012901900000001389606187046876607_);}
	.st2{fill:url(#Tracé_78874-2_00000032614918839502662540000000910361592324358575_);}
</style>
<g>
	<g>
		
			<linearGradient id="Tracé_78872-2_00000011735407144208017270000014060570753625767615_" gradientUnits="userSpaceOnUse" x1="-410.553" y1="298.6295" x2="-411.0098" y2="298.1734" gradientTransform="matrix(14.238 0 0 -14.238 5853.3027 4253.9258)">
			<stop  offset="1.000000e-03" style="stop-color:#EE7E1E"/>
			<stop  offset="0.199" style="stop-color:#EC8420"/>
			<stop  offset="0.467" style="stop-color:#EE952D"/>
			<stop  offset="0.774" style="stop-color:#F1B144"/>
			<stop  offset="1" style="stop-color:#F3CB5A"/>
		</linearGradient>
		<path id="Tracé_78872-2_3_" style="fill:url(#Tracé_78872-2_00000011735407144208017270000014060570753625767615_);" d="
			M4.6,9.9C2.1,9.9,0,7.8,0,5.3c0-2.5,2.1-4.6,4.6-4.6c2.5,0,4.6,2.1,4.6,4.6l0,0C9.2,7.8,7.1,9.9,4.6,9.9z"/>
		
			<linearGradient id="Tracé_78873-2_00000114053283574577137140000014173593088236370852_" gradientUnits="userSpaceOnUse" x1="-412.9887" y1="298.3326" x2="-413.5512" y2="297.7701" gradientTransform="matrix(13.95 0 0 -13.951 5796.6396 4163.291)">
			<stop  offset="0" style="stop-color:#AB1243"/>
			<stop  offset="3.500000e-02" style="stop-color:#AD1142"/>
			<stop  offset="1" style="stop-color:#E9721B"/>
		</linearGradient>
		<path id="Tracé_78873-2_3_" style="fill:url(#Tracé_78873-2_00000114053283574577137140000014173593088236370852_);" d="M36,7.7
			c0,1.1-0.9,2-2,2c0,0,0,0,0,0l-5.1,0c-1.1,0-2-0.9-2-2l0-5.1c0-1.1,0.9-2,2-2l5.1,0c1.1,0,2,0.9,2,2c0,0,0,0,0,0V7.7z"/>
		
			<linearGradient id="Tracé_78874-2_00000010309749279145460670000010836615741352999845_" gradientUnits="userSpaceOnUse" x1="-411.116" y1="300.8575" x2="-411.6252" y2="300.416" gradientTransform="matrix(14.223 0 0 -16.418 5868.8906 4941.1499)">
			<stop  offset="0" style="stop-color:#1E5870"/>
			<stop  offset="0.199" style="stop-color:#236272"/>
			<stop  offset="0.555" style="stop-color:#1D8178"/>
			<stop  offset="1" style="stop-color:#219977"/>
		</linearGradient>
		<path id="Tracé_78874-2_3_" style="fill:url(#Tracé_78874-2_00000010309749279145460670000010836615741352999845_);" d="
			M18,10.6L13.4,8l0-5.3L18,0l4.6,2.6l0,5.3L18,10.6z"/>
	</g>
	<g>
		<path d="M0.6,36.2v-2l2.8-0.7V15.7l-2.8-0.7v-1.8l9.1-0.2v2l-2.8,0.7v17.8l2.8,0.7v2H0.6z"/>
		<path d="M18.2,33.6l3.1,0.7v2h-8.9v-2l2.8-0.7V15.7l-2.8-0.7v-1.8l6.9-0.2l10.9,18.4V15.7l-2.8-0.7v-1.8l8.6-0.2v2l-2.8,0.7v20.4
			h-4.1L18.2,18V33.6z"/>
		<path d="M46.4,33.7c2.4,0,5-1.2,5-3.5c0-5.1-11.9-3-11.9-10.9c0-4.6,3.7-6.6,7.8-6.6c3.1,0,7,1.3,7,1.3l-0.2,5.6H52l-1.1-3.5
			c0,0-1.7-0.6-3.5-0.6c-3,0-4.4,1.6-4.4,3.2c0,5,11.9,3.1,11.9,10.5c0,4.9-4,7.2-8.6,7.2c-3.5,0-6.8-1.3-6.8-1.3v-5.8h2.6l0.7,3.5
			C42.8,32.9,44.3,33.7,46.4,33.7z"/>
		<path d="M58.3,36.2v-2l2.8-0.7V15.7l-2.8-0.7v-1.8l9.1-0.2v2l-2.8,0.7v17.8l2.8,0.7v2H58.3z"/>
		<path d="M81.4,36.5c-6.6,0-10.6-4-10.6-11.4c0-7.6,4.3-12.4,11-12.4c3.6,0,7.4,1.6,7.4,1.6l-0.2,5.4H87l-1-3.6c0,0-2-0.7-4.5-0.7
			c-4.5,0-6.9,3.3-6.9,9.4c0,5.9,3,8.7,7.3,8.7c2.3,0,4.6-0.8,4.6-0.8v-5.4l-2.8-0.7V25l8.6-0.2v2l-2.5,0.7v7.1
			C89.8,34.5,86.3,36.5,81.4,36.5z"/>
		<path d="M94.9,36.2v-2l2.8-0.7V15.7l-2.8-0.7v-1.8l9.4-0.2v2l-3.1,0.7V23h11v-7.3l-3.1-0.7v-1.8l9.4-0.2v2l-2.8,0.7v17.8l2.8,0.7
			v2h-9.4v-2l3.1-0.7v-7.9h-11v7.9l3.1,0.7v2H94.9z"/>
		<path d="M124.1,36.2v-2l3.3-0.7V15.7h-4.3l-0.8,3.3h-2.1v-5.9h18V19H136l-0.8-3.3h-4.3v17.8l3.3,0.7v2H124.1z"/>
		<path d="M147.7,33.7c2.4,0,5-1.2,5-3.5c0-5.1-11.9-3-11.9-10.9c0-4.6,3.7-6.6,7.8-6.6c3.1,0,7,1.3,7,1.3l-0.2,5.6h-2.1l-1.1-3.5
			c0,0-1.7-0.6-3.5-0.6c-3,0-4.4,1.6-4.4,3.2c0,5,11.9,3.1,11.9,10.5c0,4.9-4,7.2-8.6,7.2c-3.5,0-6.8-1.3-6.8-1.3v-5.8h2.6l0.7,3.5
			C144.1,32.9,145.6,33.7,147.7,33.7z"/>
	</g>
</g>
</svg>
